<?xml version="1.0" standalone="no"?>
<!DOCTYPE svg PUBLIC "-//W3C//DTD SVG 20010904//EN"
 "http://www.w3.org/TR/2001/REC-SVG-20010904/DTD/svg10.dtd">
<svg version="1.0" xmlns="http://www.w3.org/2000/svg"
 width="200.000000pt" height="200.000000pt" viewBox="0 0 200.000000 200.000000"
 preserveAspectRatio="xMidYMid meet">

<g transform="translate(0.000000,200.000000) scale(0.100000,-0.100000)"
fill="#000000" stroke="none">
<path fill="#e73e11" d="M920 1898 c16 -5 6 -6 -30 -3 -40 3 -51 2 -40 -6 11 -8 5 -9 -25 -5
-30 4 -36 3 -25 -5 11 -8 6 -9 -20 -6 -19 3 -29 3 -21 0 18 -7 -109 -55 -127
-48 -8 3 -10 0 -6 -7 5 -8 2 -9 -10 -5 -11 5 -15 3 -10 -5 5 -8 2 -9 -10 -5
-11 5 -15 3 -10 -5 5 -8 2 -9 -10 -5 -9 4 -15 3 -12 -2 3 -5 -23 -27 -57 -49
-86 -56 -223 -201 -277 -294 -25 -42 -49 -74 -54 -71 -5 4 -6 1 -2 -6 10 -16
-3 -53 -16 -45 -7 4 -8 2 -4 -4 9 -15 -14 -93 -26 -86 -5 3 -6 -6 -2 -22 5
-19 4 -25 -4 -20 -8 5 -10 -2 -5 -25 4 -22 3 -30 -5 -25 -7 4 -9 -12 -6 -51 3
-42 1 -51 -5 -33 -7 18 -9 4 -10 -57 -1 -45 3 -85 9 -88 5 -3 7 -19 3 -35 -3
-19 -1 -30 6 -30 7 0 9 -9 5 -24 -3 -13 -1 -27 5 -30 5 -4 8 -13 4 -21 -3 -8
0 -15 7 -15 7 0 9 -8 5 -20 -4 -11 -2 -20 4 -20 6 0 7 -7 4 -17 -5 -12 -3 -14
7 -8 9 5 11 4 6 -4 -10 -16 3 -53 16 -45 7 4 8 2 4 -4 -9 -15 47 -125 100
-193 211 -274 545 -404 889 -344 172 30 321 106 455 232 134 126 215 259 262
428 32 117 32 355 0 470 -45 161 -112 277 -231 395 -42 41 -69 66 -61 55 11
-15 8 -14 -16 5 -17 14 -29 28 -27 33 2 4 1 6 -4 5 -13 -4 -72 35 -67 44 3 4
-2 5 -10 2 -9 -4 -18 1 -22 10 -3 9 -10 13 -15 10 -5 -3 -9 0 -9 6 0 6 -4 8
-10 5 -5 -3 -10 -1 -10 5 0 6 -4 8 -10 5 -5 -3 -10 -1 -10 5 0 6 -4 9 -9 6
-12 -8 -42 4 -36 14 3 5 -5 6 -17 2 -13 -3 -19 -1 -15 5 5 7 -1 9 -15 5 -13
-3 -19 -1 -15 5 5 7 -1 9 -15 5 -15 -3 -19 -2 -14 7 6 9 0 10 -20 5 -19 -5
-25 -4 -20 5 6 8 0 10 -18 5 -16 -4 -26 -2 -26 5 0 7 -17 9 -47 6 -32 -4 -41
-2 -28 3 13 6 -18 9 -85 9 -68 0 -96 -3 -80 -9z m169 -298 c69 -35 108 -107
98 -181 -5 -37 -3 -41 31 -58 l35 -18 56 29 c45 24 64 28 95 24 113 -19 188
-124 157 -225 -15 -53 -63 -107 -107 -123 -32 -11 -34 -15 -34 -55 0 -39 3
-44 33 -56 44 -19 95 -79 103 -122 16 -86 -25 -168 -101 -205 -103 -50 -229
18 -251 135 -13 74 34 160 106 191 38 17 40 20 40 61 0 29 -4 43 -13 43 -8 0
-32 13 -54 29 -48 35 -75 96 -72 158 3 40 0 45 -30 64 l-33 20 -51 -26 c-58
-29 -102 -32 -154 -10 -50 21 -72 42 -94 90 -71 154 90 312 240 235z m-375
-224 c118 -64 111 -243 -11 -308 -40 -21 -43 -26 -42 -63 0 -36 4 -43 46 -70
59 -38 87 -91 86 -160 -1 -49 0 -51 37 -72 33 -19 40 -20 50 -8 7 8 27 20 46
27 32 11 34 15 34 58 -1 43 -2 46 -41 64 -72 33 -111 123 -90 203 43 161 263
180 332 29 10 -22 19 -57 19 -76 0 -71 -56 -151 -116 -166 -19 -5 -23 -14 -26
-52 -3 -45 -2 -48 33 -63 59 -27 93 -80 97 -153 4 -76 -24 -129 -83 -163 -75
-43 -186 -22 -233 44 -26 37 -43 103 -36 139 5 26 1 32 -32 50 l-37 22 -34
-24 c-68 -46 -149 -41 -214 13 -94 80 -72 247 39 297 40 18 42 21 42 62 0 34
-4 44 -20 49 -31 10 -79 54 -97 88 -20 40 -20 124 0 164 20 39 70 81 105 89
15 3 32 7 37 9 19 7 70 -7 109 -29z m-607 -448 c-3 -8 -6 -5 -6 6 -1 11 2 17
5 13 3 -3 4 -12 1 -19z"/>
<path d="M309 1593 c-13 -16 -12 -17 4 -4 9 7 17 15 17 17 0 8 -8 3 -21 -13z"/>
</g>
</svg>
